<?xml version="1.0" encoding="UTF-8" standalone="no"?>
<svg width="20px" height="18px" viewBox="0 0 20 18" version="1.1" xmlns="http://www.w3.org/2000/svg" xmlns:xlink="http://www.w3.org/1999/xlink">
    <!-- Generator: Sketch 40.1 (33804) - http://www.bohemiancoding.com/sketch -->
    <title>Fill 4</title>
    <desc>Created with Sketch.</desc>
    <defs></defs>
    <g id="Layout" stroke="none" stroke-width="1" fill="none" fill-rule="evenodd">
        <g id="Contato" transform="translate(-259.000000, -1179.000000)" fill="#1A2E67">
            <path d="M262.44042,1179.03373 C262.630555,1179.03373 262.808912,1179.02784 262.987269,1179.03541 C263.288457,1179.04803 263.550944,1179.14562 263.687236,1179.43756 C263.930373,1179.96085 264.168463,1180.48667 264.395616,1181.01753 C264.715312,1181.76125 265.000515,1182.5201 265.344609,1183.25204 C265.578492,1183.75178 265.475853,1184.18168 265.183078,1184.58215 C264.861699,1185.02299 264.504986,1185.43859 264.151637,1185.85588 C263.879895,1186.17726 263.839512,1186.46751 264.062458,1186.83012 C265.304227,1188.8442 266.880834,1190.51924 268.988307,1191.64323 C269.52506,1191.93011 270.084529,1192.17662 270.64568,1192.41387 C271.063809,1192.5897 271.296851,1192.50977 271.587102,1192.15558 C272.059916,1191.57761 272.530206,1190.99879 272.998814,1190.41745 C273.321034,1190.01867 273.576791,1189.92612 274.04624,1190.14234 C275.335121,1190.73546 276.611383,1191.3555 277.896899,1191.95535 C278.221643,1192.10679 278.366347,1192.35497 278.315869,1192.68813 C278.225849,1193.27789 278.14929,1193.87606 277.980188,1194.44562 C277.796783,1195.06398 277.299571,1195.46949 276.78385,1195.82536 C275.496652,1196.71294 274.095036,1197.13275 272.547032,1196.69864 C271.516432,1196.40923 270.502658,1196.05336 269.492249,1195.69748 C267.168561,1194.87889 265.255431,1193.44615 263.56777,1191.68614 C262.172885,1190.23068 260.954673,1188.63724 259.96698,1186.88059 C259.156802,1185.43775 258.772325,1183.89396 259.139976,1182.23406 C259.400781,1181.06128 260.034284,1180.10724 260.949625,1179.34754 C261.378692,1178.99082 261.913762,1178.95717 262.44042,1179.03373 L264.151637,1181.01753" id="Fill-4"></path>
        </g>
    </g>
</svg>