<?xml version="1.0" encoding="UTF-8" standalone="no"?>
<svg width="25px" height="25px" viewBox="0 0 25 25" version="1.1" xmlns="http://www.w3.org/2000/svg" xmlns:xlink="http://www.w3.org/1999/xlink">
    <!-- Generator: Sketch 40.1 (33804) - http://www.bohemiancoding.com/sketch -->
    <title>Page 1</title>
    <desc>Created with Sketch.</desc>
    <defs></defs>
    <g id="Layout" stroke="none" stroke-width="1" fill="none" fill-rule="evenodd">
        <g id="Contato" transform="translate(-256.000000, -1274.000000)" fill="#1A2E67">
            <g id="Group-4" transform="translate(256.000000, 1274.000000)">
                <g id="Page-1">
                    <g id="Group-3" transform="translate(0.000000, 0.017500)">
                        <g id="Group">
                            <path d="M3.02484375,22.0384375 C3.20296875,21.9863542 3.33421875,21.9504167 3.46442708,21.9092708 C4.55036458,21.5644792 5.63734375,21.2222917 6.72067708,20.8702083 C6.86130208,20.8248958 6.96338542,20.8498958 7.08526042,20.9160417 C7.56026042,21.1722917 8.02901042,21.4441667 8.52171875,21.6623958 C9.80296875,22.2301042 11.1566146,22.4780208 12.5545312,22.4670833 C13.9863021,22.455625 15.3581771,22.1603125 16.6628646,21.5582292 C17.4602604,21.1905208 18.2066146,20.7394792 18.8810937,20.1827083 C19.9889062,19.2686458 20.8758854,18.17125 21.5227604,16.88375 C22.4050521,15.1285417 22.7243229,13.2707292 22.5118229,11.3254167 C22.3175521,9.54520833 21.6665104,7.9384375 20.5951562,6.50041667 C19.9196354,5.59364583 19.1180729,4.81708333 18.1857812,4.18166667 C16.9420312,3.33427083 15.5779687,2.76708333 14.0863021,2.54 C11.8238021,2.19572917 9.66963542,2.53739583 7.65140625,3.62958333 C6.15244792,4.44052083 4.93005208,5.56447917 3.99151042,6.99 C3.33682292,7.98427083 2.87223958,9.06135417 2.60765625,10.2233333 C2.39463542,11.1577083 2.32796875,12.1025 2.38213542,13.05875 C2.43161458,13.936875 2.60296875,14.7910417 2.88213542,15.6207292 C3.19046875,16.5389583 3.62848958,17.39625 4.19359375,18.1853125 C4.26807292,18.2894792 4.26755208,18.3759375 4.22848958,18.4905208 C3.89932292,19.4446875 3.57588542,20.4004167 3.25140625,21.3561458 C3.17901042,21.5696875 3.10921875,21.7847917 3.02484375,22.0384375 M11.7357812,0.511875 L13.2222396,0.511875 C13.2784896,0.524375 13.3336979,0.544166667 13.3904687,0.548854167 C14.6399479,0.6478125 15.8503646,0.920729167 17.0102604,1.39520833 C19.0503646,2.22958333 20.7503646,3.52177083 22.0790104,5.28010417 C23.3321354,6.9384375 24.1107812,8.8009375 24.3743229,10.8707292 C24.4097396,11.1472917 24.4503646,11.4233333 24.4883854,11.6998958 L24.4883854,13.1863542 C24.4753646,13.2420833 24.4555729,13.2978125 24.4508854,13.3545833 C24.3524479,14.5103125 24.1060937,15.630625 23.6873437,16.715 C23.0774479,18.2941667 22.1639062,19.6738542 20.9717187,20.8686458 C20.2097396,21.6327083 19.3534896,22.280625 18.4118229,22.8092708 C16.7003646,23.7702083 14.8602604,24.2936458 12.8988021,24.3582292 C10.7446354,24.4290625 8.70817708,23.9655208 6.79723958,22.9592708 C6.71703125,22.9165625 6.59411458,22.9071875 6.50661458,22.93375 C5.79671875,23.1504167 5.09046875,23.3795833 4.38317708,23.6051042 C3.34098958,23.936875 2.29776042,24.2660417 1.25661458,24.6009375 C0.861822917,24.7280208 0.471197917,24.8665625 0.0784895833,24.9998958 C0.0519270833,24.9738542 0.0258854167,24.9478125 -0.00015625,24.9217708 C0.04203125,24.8285417 0.09203125,24.7379167 0.12484375,24.6415625 C0.390989583,23.85875 0.654010417,23.074375 0.919114583,22.2915625 C1.31807292,21.1134375 1.72119792,19.936875 2.11338542,18.7566667 C2.14359375,18.6660417 2.12588542,18.5373958 2.08369792,18.4483333 C1.93890625,18.1436458 1.76703125,17.8514583 1.61651042,17.5488542 C0.939947917,16.1884375 0.586822917,14.7405208 0.473802083,13.2321875 C0.380572917,11.9936458 0.505572917,10.7722917 0.80296875,9.56708333 C1.18942708,8.00197917 1.87223958,6.57697917 2.84307292,5.29520833 C3.81703125,4.00927083 5.00192708,2.955625 6.40348958,2.14625 C7.78630208,1.3478125 9.26286458,0.833229167 10.8472396,0.6290625 C11.1435937,0.590520833 11.4394271,0.5509375 11.7357812,0.511875" id="Fill-1"></path>
                            <path d="M8.73953125,7.0140625 C8.85723958,7.0140625 8.96765625,7.01041667 9.07807292,7.01510417 C9.26453125,7.02291667 9.42703125,7.08333333 9.51140625,7.2640625 C9.66192708,7.58802083 9.80932292,7.91354167 9.94994792,8.2421875 C10.1478646,8.70260417 10.3244271,9.17239583 10.5374479,9.62552083 C10.6822396,9.93489583 10.6186979,10.2010417 10.4374479,10.4489583 C10.2384896,10.721875 10.0176563,10.9791667 9.79890625,11.2375 C9.63067708,11.4364583 9.60567708,11.6161458 9.74369792,11.840625 C10.5124479,13.0875 11.4884896,14.1244792 12.7931771,14.8203125 C13.1254688,14.9979167 13.4718229,15.1505208 13.8192188,15.2973958 C14.0780729,15.40625 14.2223438,15.3567708 14.4020313,15.1375 C14.6947396,14.7796875 14.9858854,14.4213542 15.2759896,14.0614583 C15.4754688,13.8145833 15.6338021,13.7572917 15.9244271,13.8911458 C16.7223438,14.2583333 17.5124479,14.6421875 18.3082813,15.0135417 C18.5093229,15.1072917 18.5989063,15.2609375 18.5676563,15.4671875 C18.5119271,15.8322917 18.4645313,16.2026042 18.3598438,16.5552083 C18.2463021,16.9380208 17.9384896,17.1890625 17.6192188,17.409375 C16.8223438,17.9588542 15.9546354,18.21875 14.9963021,17.95 C14.3582813,17.7708333 13.7306771,17.5505208 13.1051563,17.3302083 C11.6666146,16.8234375 10.4822396,15.9364583 9.43744792,14.846875 C8.57390625,13.9458333 7.81973958,12.959375 7.20828125,11.871875 C6.70671875,10.9786458 6.46869792,10.0229167 6.69630208,8.9953125 C6.85776042,8.26927083 7.24994792,7.67864583 7.81661458,7.20833333 C8.08223958,6.9875 8.41348958,6.96666667 8.73953125,7.0140625" id="Fill-4"></path>
                        </g>
                    </g>
                </g>
            </g>
        </g>
    </g>
</svg>