<?xml version="1.0" encoding="UTF-8" standalone="no"?>
<svg width="21px" height="22px" viewBox="0 0 21 22" version="1.1" xmlns="http://www.w3.org/2000/svg" xmlns:xlink="http://www.w3.org/1999/xlink">
    <!-- Generator: Sketch 40.1 (33804) - http://www.bohemiancoding.com/sketch -->
    <title>Page 1</title>
    <desc>Created with Sketch.</desc>
    <defs></defs>
    <g id="Symbols" stroke="none" stroke-width="1" fill="none" fill-rule="evenodd">
        <g id="Rodapé" transform="translate(-817.000000, -243.000000)" fill="#FFFFFF">
            <g id="Page-1" transform="translate(817.000000, 243.000000)">
                <g id="Group-3" transform="translate(0.000000, 0.015256)">
                    <g id="Group">
                        <path d="M2.54086875,19.2129968 C2.69049375,19.1675908 2.80074375,19.1362607 2.91011875,19.10039 C3.82230625,18.7998024 4.73536875,18.501485 5.64536875,18.1945406 C5.76349375,18.1550374 5.84924375,18.1768323 5.95161875,18.2344979 C6.35061875,18.4578953 6.74436875,18.6949145 7.15824375,18.8851656 C8.23449375,19.3800908 9.37155625,19.5962233 10.5458062,19.586688 C11.7484937,19.5766987 12.9008687,19.3192468 13.9968062,18.7943536 C14.6666187,18.4737874 15.2935562,18.0805716 15.8601187,17.5951816 C16.7906812,16.7983066 17.5357437,15.8416026 18.0791187,14.7191667 C18.8202437,13.188985 19.0884312,11.5693536 18.9099312,9.87344017 C18.7467437,8.32146368 18.1998687,6.9206891 17.2999312,5.66702991 C16.7324937,4.87651175 16.0591812,4.19950855 15.2760562,3.64555556 C14.2313062,2.90680021 13.0854937,2.41232906 11.8324937,2.21435897 C9.93199375,1.91422543 8.12249375,2.21208868 6.42718125,3.16425214 C5.16805625,3.87122329 4.14124375,4.8510844 3.35286875,6.09384615 C2.80293125,6.96064637 2.41268125,7.89964209 2.19043125,8.91264957 C2.01149375,9.72723291 1.95549375,10.5508974 2.00099375,11.3845513 C2.04255625,12.1500962 2.18649375,12.8947543 2.42099375,13.6180716 C2.67999375,14.4185791 3.04793125,15.1659615 3.52261875,15.8538622 C3.58518125,15.9446741 3.58474375,16.0200481 3.55193125,16.1199412 C3.27543125,16.9517788 3.00374375,17.7849786 2.73118125,18.6181784 C2.67036875,18.8043429 2.61174375,18.9918697 2.54086875,19.2129968 M9.85805625,0.44625 L11.1066812,0.44625 C11.1539312,0.457147436 11.2003062,0.474401709 11.2479937,0.478488248 C12.2975562,0.564759615 13.3143062,0.802686966 14.2886187,1.21633547 C16.0023062,1.94373932 17.4303062,3.07026175 18.5463687,4.60316774 C19.5989937,6.04889423 20.2530562,7.67261218 20.4744312,9.47704594 C20.5041812,9.71815171 20.5383062,9.95880342 20.5702437,10.1999092 L20.5702437,11.4957959 C20.5593062,11.5443803 20.5426812,11.5929647 20.5387437,11.6424573 C20.4560562,12.650016 20.2491187,13.6266987 19.8973687,14.5720513 C19.3850562,15.9487607 18.6176812,17.1515652 17.6162437,18.1931784 C16.9761812,18.8592842 16.2569312,19.4241346 15.4659312,19.8850053 C14.0283062,20.7227457 12.4826187,21.1790759 10.8349937,21.2353793 C9.02549375,21.2971314 7.31486875,20.8930182 5.70968125,20.0157746 C5.64230625,19.9785417 5.53905625,19.9703686 5.46555625,19.9935256 C4.86924375,20.1824145 4.27599375,20.3822009 3.68186875,20.5788088 C2.80643125,20.8680449 1.93011875,21.1550107 1.05555625,21.4469712 C0.72393125,21.5577618 0.39580625,21.6785417 0.06593125,21.794781 C0.04361875,21.772078 0.02174375,21.749375 -0.00013125,21.726672 C0.03530625,21.6453953 0.07730625,21.5663889 0.10486875,21.4823878 C0.32843125,20.7999359 0.54936875,20.1161218 0.77205625,19.4336699 C1.10718125,18.4065865 1.44580625,17.3808654 1.77524375,16.3519658 C1.80061875,16.2729594 1.78574375,16.1608066 1.75030625,16.0831624 C1.62868125,15.8175374 1.48430625,15.5628098 1.35786875,15.2990011 C0.78955625,14.1129968 0.49293125,12.8507105 0.39799375,11.5357532 C0.31968125,10.4559989 0.42468125,9.39122863 0.67449375,8.34053419 C0.99911875,6.9760844 1.57268125,5.73377671 2.38818125,4.61633547 C3.20630625,3.49526175 4.20161875,2.57669872 5.37893125,1.87108974 C6.54049375,1.17501603 7.78080625,0.726404915 9.11168125,0.548413462 C9.36061875,0.514813034 9.60911875,0.480304487 9.85805625,0.44625" id="Fill-1"></path>
                        <path d="M7.34120625,6.11482372 C7.44008125,6.11482372 7.53283125,6.1116453 7.62558125,6.11573184 C7.78220625,6.12254274 7.91870625,6.17521368 7.98958125,6.33277244 C8.11601875,6.61519765 8.23983125,6.89898504 8.35795625,7.18549679 C8.52420625,7.58688568 8.67251875,7.99644765 8.85145625,8.3914797 C8.97308125,8.66119124 8.91970625,8.89321581 8.76745625,9.10934829 C8.60033125,9.34727564 8.41483125,9.5715812 8.23108125,9.79679487 C8.08976875,9.97024573 8.06876875,10.1268964 8.18470625,10.3225962 C8.83045625,11.4096154 9.65033125,12.3136485 10.7462688,12.9202724 C11.0253938,13.0751068 11.3163313,13.2081464 11.6081438,13.3361912 C11.8255813,13.4310897 11.9467688,13.3879541 12.0977063,13.1967949 C12.3435813,12.8848558 12.5881438,12.5724626 12.8318313,12.2587073 C12.9993938,12.0434829 13.1323938,11.9935363 13.3765188,12.1102297 C14.0467688,12.4303419 14.7104563,12.764984 15.3789563,13.0887286 C15.5478313,13.1704594 15.6230813,13.3044071 15.5968313,13.4842147 C15.5500188,13.8025107 15.5102063,14.1253472 15.4222688,14.4327457 C15.3268938,14.7664797 15.0683313,14.9853365 14.8001438,15.1774038 C14.1307688,15.656437 13.4018938,15.8830128 12.5968938,15.6487179 C12.0609563,15.4925214 11.5337688,15.3004541 11.0083313,15.1083868 C9.79995625,14.6665865 8.80508125,13.8933226 7.92745625,12.9434295 C7.20208125,12.157906 6.56858125,11.2979167 6.05495625,10.3498397 C5.63364375,9.57112714 5.43370625,8.73792735 5.62489375,7.84206731 C5.76051875,7.20910791 6.08995625,6.69420406 6.56595625,6.28418803 C6.78908125,6.09166667 7.06733125,6.07350427 7.34120625,6.11482372" id="Fill-4"></path>
                    </g>
                </g>
            </g>
        </g>
    </g>
</svg>