<?xml version="1.0" encoding="UTF-8" standalone="no"?>
<svg width="27px" height="21px" viewBox="0 0 27 21" version="1.1" xmlns="http://www.w3.org/2000/svg" xmlns:xlink="http://www.w3.org/1999/xlink">
    <!-- Generator: Sketch 47.1 (45422) - http://www.bohemiancoding.com/sketch -->
    <title>envelope</title>
    <desc>Created with Sketch.</desc>
    <defs></defs>
    <g id="Layout" stroke="none" stroke-width="1" fill="none" fill-rule="evenodd">
        <g id="Contato" transform="translate(-338.000000, -1244.000000)" fill-rule="nonzero" fill="#1A2F67">
            <g id="envelope" transform="translate(338.000000, 1244.000000)">
                <path d="M23.7038968,0 L3.30167405,0 C1.48044606,0 0,1.51305057 0,3.37438825 L0,17.6256117 C0,19.4869494 1.48044606,21 3.30167405,21 L23.6983102,21 C25.5195382,21 26.9999842,19.4869494 26.9999842,17.6256117 L26.9999842,3.38009788 C27.0055708,1.5187602 25.5251248,0 23.7038968,0 Z M25.4971918,17.6256117 C25.4971918,18.6362153 24.692723,19.4584013 23.7038968,19.4584013 L3.30167405,19.4584013 C2.31284781,19.4584013 1.50837901,18.6362153 1.50837901,17.6256117 L1.50837901,3.38009788 C1.50837901,2.36949429 2.31284781,1.54730832 3.30167405,1.54730832 L23.6983102,1.54730832 C24.6871364,1.54730832 25.4916052,2.36949429 25.4916052,3.38009788 L25.4916052,17.6256117 L25.4971918,17.6256117 Z" id="Shape"></path>
                <path d="M17.0614269,10.320654 L23.735093,4.33528131 C24.0456274,4.05295241 24.0738578,3.57299328 23.7915538,3.25678491 C23.5092498,2.94622312 23.0293331,2.91799023 22.7131526,3.20031913 L13.5100428,11.4612627 L11.7145895,9.85763456 C11.7089434,9.85198799 11.7032974,9.84634141 11.7032974,9.84069483 C11.6637748,9.80116878 11.6242522,9.76728932 11.5790836,9.73340985 L4.27305658,3.19467255 C3.95687612,2.91234366 3.47695935,2.94057655 3.19465537,3.25678491 C2.91235139,3.57299328 2.94058179,4.05295241 3.25676225,4.33528131 L10.0094735,10.3714732 L3.28499265,16.6674076 C2.98010435,16.9553831 2.96316611,17.4353422 3.25111617,17.745904 C3.40356032,17.9040082 3.60681919,17.9887068 3.81007805,17.9887068 C3.99639868,17.9887068 4.18271931,17.9209479 4.32951738,17.78543 L11.1556276,11.3991503 L13.0075418,13.0535977 C13.1543398,13.183469 13.3350144,13.2455813 13.5156889,13.2455813 C13.6963635,13.2455813 13.8826841,13.1778224 14.0238361,13.0479511 L15.9265649,11.3426846 L22.7131526,17.7910766 C22.8599507,17.9322411 23.0519174,18 23.238238,18 C23.4414969,18 23.6391097,17.9209479 23.7915538,17.7628437 C24.0795039,17.4579285 24.0682117,16.9723228 23.7633234,16.6843473 L17.0614269,10.320654 Z" id="Shape"></path>
            </g>
        </g>
    </g>
</svg>