<?xml version="1.0" encoding="UTF-8" standalone="no"?>
<svg width="20px" height="15px" viewBox="0 0 20 15" version="1.1" xmlns="http://www.w3.org/2000/svg" xmlns:xlink="http://www.w3.org/1999/xlink">
    <!-- Generator: Sketch 47.1 (45422) - http://www.bohemiancoding.com/sketch -->
    <title>envelope</title>
    <desc>Created with Sketch.</desc>
    <defs></defs>
    <g id="Layout" stroke="none" stroke-width="1" fill="none" fill-rule="evenodd">
        <g id="envelope" fill-rule="nonzero" fill="#FFFFFF">
            <path d="M17.5584421,0 L2.44568448,0 C1.09662671,0 0,1.08075041 0,2.41027732 L0,12.5897227 C0,13.9192496 1.09662671,15 2.44568448,15 L17.5543038,15 C18.9033616,15 19.9999883,13.9192496 19.9999883,12.5897227 L19.9999883,2.41435563 C20.0041265,1.08482871 18.9074998,0 17.5584421,0 Z M19,12.6697482 C19,13.4032515 18.396367,14 17.6544015,14 L2.34559851,14 C1.60363298,14 1,13.4032515 1,12.6697482 L1,2.33025183 C1,1.59674849 1.60363298,1 2.34559851,1 L17.6502096,1 C18.3921751,1 18.9958081,1.59674849 18.9958081,2.33025183 L18.9958081,12.6697482 L19,12.6697482 Z" id="Shape"></path>
            <path d="M12.7134681,7.36847957 L17.7981661,2.97920629 C18.0347637,2.7721651 18.0562726,2.42019507 17.8411839,2.18830894 C17.6260951,1.96056362 17.2604442,1.93985951 17.0195449,2.1469007 L10.0076517,8.20492599 L8.63968725,7.02893201 C8.63538548,7.02479119 8.6310837,7.02065037 8.6310837,7.01650954 C8.60097128,6.98752377 8.57085885,6.96267883 8.53644465,6.93783389 L2.96994787,2.14275987 C2.72904847,1.93571868 2.3633976,1.9564228 2.14830886,2.18830894 C1.93322011,2.42019507 1.95472898,2.7721651 2.19562838,2.97920629 L7.34055122,7.40574698 L2.21713726,12.0227656 C1.98484141,12.2339476 1.97193608,12.5859176 2.19132661,12.8136629 C2.30747453,12.929606 2.46233843,12.9917184 2.61720233,12.9917184 C2.7591609,12.9917184 2.90111947,12.9420285 3.01296562,12.8426487 L8.21381153,8.15937692 L9.62479372,9.37263831 C9.73663986,9.46787726 9.87429666,9.51342632 10.0119535,9.51342632 C10.1496103,9.51342632 10.2915688,9.46373643 10.3991132,9.36849749 L11.8488114,8.11796868 L17.0195449,12.8467895 C17.131391,12.9503101 17.2776513,13 17.4196099,13 C17.5744738,13 17.7250359,12.9420285 17.8411839,12.8260854 C18.0605744,12.6024809 18.0519708,12.2463701 17.819675,12.035188 L12.7134681,7.36847957 Z" id="Shape"></path>
        </g>
    </g>
</svg>